# xmcd
#
# Track frame offsets: 
#        150
#        17320
#        34046
#        50454
#        67875
#
# Disc length: 1146 seconds
#
# Revision: 2
# Processed by: cddbd v1.5.2PL0 Copyright (c) Steve Scherf et al.
# Submitted via: ExactAudioCopy v1.3
#
DISCID=30047805
DTITLE=Rosenstolz - Ich geh in Flammen auf (Single)
DYEAR=2006
DGENRE=Pop
TTITLE0=Ich geh in Flammen auf
TTITLE1=Das Glück liegt auf der Straße
TTITLE2=À Zéro
TTITLE3=Tout déraille
TTITLE4=Ich bin verändert - Demoversion
EXTD=
EXTT0=
EXTT1=
EXTT2=
EXTT3=
EXTT4=
PLAYORDER=
